{
  "accessors": [
    {
      "bufferView": 2,
      "componentType": 5126,
      "count": 4722,
      "max": [
        0.05117127299308777,
        0.1770106703042984,
        0.051199786365032196
      ],
      "min": [
        -0.0510859340429306,
        -0.0010282036382704973,
        -0.05102766677737236
      ],
      "type": "VEC3"
    },
    {
      "bufferView": 2,
      "byteOffset": 56664,
      "componentType": 5126,
      "count": 4722,
      "max": [
        0.9999691247940063,
        0.999984860420227,
        0.9999860525131226
      ],
      "min": [
        -0.9999877214431763,
        -0.9986116290092468,
        -0.9999382495880127
      ],
      "type": "VEC3"
    },
    {
      "bufferView": 3,
      "componentType": 5126,
      "count": 4722,
      "max": [
        0.9999998211860657,
        0.9990068674087524,
        1.0,
        1.0
      ],
      "min": [
        -0.999994158744812,
        -0.9988173246383667,
        -1.0,
        -1.0
      ],
      "type": "VEC4"
    },
    {
      "bufferView": 1,
      "componentType": 5126,
      "count": 4722,
      "max": [
        0.7510706782341003,
        1.0
      ],
      "min": [
        0.0,
        0.24891328811645508
      ],
      "type": "VEC2"
    },
    {
      "bufferView": 1,
      "byteOffset": 37776,
      "componentType": 5126,
      "count": 4722,
      "max": [
        0.7510706782341003,
        1.0
      ],
      "min": [
        0.0,
        0.24891328811645508
      ],
      "type": "VEC2"
    },
    {
      "bufferView": 1,
      "byteOffset": 75552,
      "componentType": 5126,
      "count": 4722,
      "max": [
        0.7510706782341003,
        1.0
      ],
      "min": [
        0.0,
        0.24891328811645508
      ],
      "type": "VEC2"
    },
    {
      "bufferView": 1,
      "byteOffset": 113328,
      "componentType": 5126,
      "count": 4722,
      "max": [
        0.7510706782341003,
        1.0
      ],
      "min": [
        0.0,
        0.24891328811645508
      ],
      "type": "VEC2"
    },
    {
      "bufferView": 0,
      "componentType": 5125,
      "count": 13494,
      "type": "SCALAR"
    }
  ],
  "asset": {
    "extras": {
      "author": "adadadad5252341 (https://sketchfab.com/adadadad5252341)",
      "license": "CC-BY-4.0 (http://creativecommons.org/licenses/by/4.0/)",
      "source": "https://sketchfab.com/3d-models/cc0-bird-cage-609200b0c7af4f40815ea1cefe6f7e0a",
      "title": "[CC0] Bird Cage"
    },
    "generator": "Sketchfab-11.53.2",
    "version": "2.0"
  },
  "bufferViews": [
    {
      "buffer": 0,
      "byteLength": 53976,
      "name": "floatBufferViews",
      "target": 34963
    },
    {
      "buffer": 0,
      "byteLength": 151104,
      "byteOffset": 53976,
      "byteStride": 8,
      "name": "floatBufferViews",
      "target": 34962
    },
    {
      "buffer": 0,
      "byteLength": 113328,
      "byteOffset": 205080,
      "byteStride": 12,
      "name": "floatBufferViews",
      "target": 34962
    },
    {
      "buffer": 0,
      "byteLength": 75552,
      "byteOffset": 318408,
      "byteStride": 16,
      "name": "floatBufferViews",
      "target": 34962
    }
  ],
  "buffers": [
    {
      "byteLength": 393960,
      "uri": "scene.bin"
    }
  ],
  "images": [
    {
      "uri": "textures/GoldMetal.001_baseColor.png"
    },
    {
      "uri": "textures/GoldMetal.001_metallicRoughness.png"
    },
    {
      "uri": "textures/GoldMetal.001_normal.png"
    }
  ],
  "materials": [
    {
      "doubleSided": true,
      "name": "GoldMetal.001",
      "normalTexture": {
        "index": 2,
        "scale": 0.0
      },
      "pbrMetallicRoughness": {
        "baseColorTexture": {
          "index": 0
        },
        "metallicRoughnessTexture": {
          "index": 1
        }
      }
    }
  ],
  "meshes": [
    {
      "name": "Object_0",
      "primitives": [
        {
          "attributes": {
            "NORMAL": 1,
            "POSITION": 0,
            "TANGENT": 2,
            "TEXCOORD_0": 3,
            "TEXCOORD_1": 4,
            "TEXCOORD_2": 5,
            "TEXCOORD_3": 6
          },
          "indices": 7,
          "material": 0,
          "mode": 4
        }
      ]
    }
  ],
  "nodes": [
    {
      "children": [
        1
      ],
      "matrix": [
        1.0,
        0.0,
        0.0,
        0.0,
        0.0,
        2.220446049250313e-16,
        -1.0,
        0.0,
        0.0,
        1.0,
        2.220446049250313e-16,
        0.0,
        0.0,
        0.0,
        0.0,
        1.0
      ],
      "name": "Sketchfab_model"
    },
    {
      "children": [
        2
      ],
      "name": "root"
    },
    {
      "children": [
        3
      ],
      "matrix": [
        1.0,
        0.0,
        0.0,
        0.0,
        0.0,
        2.220446049250313e-16,
        1.0,
        0.0,
        0.0,
        -1.0,
        2.220446049250313e-16,
        0.0,
        0.0,
        0.0,
        0.0,
        1.0
      ],
      "name": "GLTF_SceneRootNode"
    },
    {
      "children": [
        4
      ],
      "matrix": [
        1.5,
        0.0,
        0.0,
        0.0,
        0.0,
        1.5,
        0.0,
        0.0,
        0.0,
        0.0,
        1.5,
        0.0,
        0.6287400126457214,
        1.502089262008667,
        -0.1386113464832306,
        1.0
      ],
      "name": "BirdCage_2"
    },
    {
      "mesh": 0,
      "name": "Object_4"
    }
  ],
  "samplers": [
    {
      "magFilter": 9729,
      "minFilter": 9987,
      "wrapS": 10497,
      "wrapT": 10497
    }
  ],
  "scene": 0,
  "scenes": [
    {
      "name": "Sketchfab_Scene",
      "nodes": [
        0
      ]
    }
  ],
  "textures": [
    {
      "sampler": 0,
      "source": 0
    },
    {
      "sampler": 0,
      "source": 1
    },
    {
      "sampler": 0,
      "source": 2
    }
  ]
}
