{
  "accessors": [
    {
      "bufferView": 2,
      "componentType": 5126,
      "count": 4605,
      "max": [
        0.8697013854980469,
        0.8697015047073364,
        2.0567800998687744
      ],
      "min": [
        -0.8697013854980469,
        -1.600296974182129,
        0.002047607209533453
      ],
      "type": "VEC3"
    },
    {
      "bufferView": 2,
      "byteOffset": 55260,
      "componentType": 5126,
      "count": 4605,
      "max": [
        1.0,
        0.9996323585510254,
        1.0
      ],
      "min": [
        -0.9999962449073792,
        -0.9990331530570984,
        -1.0
      ],
      "type": "VEC3"
    },
    {
      "bufferView": 1,
      "componentType": 5126,
      "count": 4605,
      "max": [
        0.9960136413574219,
        0.9012327194213867
      ],
      "min": [
        0.003986478317528963,
        0.003986477851867676
      ],
      "type": "VEC2"
    },
    {
      "bufferView": 0,
      "componentType": 5125,
      "count": 18504,
      "type": "SCALAR"
    }
  ],
  "asset": {
    "extras": {
      "author": "DedicatedGhost (https://sketchfab.com/DedicatedGhost)",
      "license": "CC-BY-4.0 (http://creativecommons.org/licenses/by/4.0/)",
      "source": "https://sketchfab.com/3d-models/coffee-mug-free-model-d250ff5dd46947b7ac906213d39e4f63",
      "title": "Coffee Mug Free Model"
    },
    "generator": "Sketchfab-11.53.2",
    "version": "2.0"
  },
  "bufferViews": [
    {
      "buffer": 0,
      "byteLength": 74016,
      "name": "floatBufferViews",
      "target": 34963
    },
    {
      "buffer": 0,
      "byteLength": 36840,
      "byteOffset": 74016,
      "byteStride": 8,
      "name": "floatBufferViews",
      "target": 34962
    },
    {
      "buffer": 0,
      "byteLength": 110520,
      "byteOffset": 110856,
      "byteStride": 12,
      "name": "floatBufferViews",
      "target": 34962
    }
  ],
  "buffers": [
    {
      "byteLength": 221376,
      "uri": "scene.bin"
    }
  ],
  "images": [
    {
      "uri": "textures/Mug_White_baseColor.png"
    },
    {
      "uri": "textures/Mug_White_metallicRoughness.png"
    }
  ],
  "materials": [
    {
      "name": "Mug_White",
      "pbrMetallicRoughness": {
        "baseColorTexture": {
          "index": 0
        },
        "metallicFactor": 0.0,
        "metallicRoughnessTexture": {
          "index": 1
        }
      }
    }
  ],
  "meshes": [
    {
      "name": "Coffee Mug.001_Mug White_0",
      "primitives": [
        {
          "attributes": {
            "NORMAL": 1,
            "POSITION": 0,
            "TEXCOORD_0": 2
          },
          "indices": 3,
          "material": 0,
          "mode": 4
        }
      ]
    }
  ],
  "nodes": [
    {
      "children": [
        1
      ],
      "matrix": [
        1.0,
        0.0,
        0.0,
        0.0,
        0.0,
        2.220446049250313e-16,
        -1.0,
        0.0,
        0.0,
        1.0,
        2.220446049250313e-16,
        0.0,
        0.0,
        0.0,
        0.0,
        1.0
      ],
      "name": "Sketchfab_model"
    },
    {
      "children": [
        2
      ],
      "matrix": [
        1.0,
        0.0,
        0.0,
        0.0,
        0.0,
        0.0,
        1.0,
        0.0,
        0.0,
        -1.0,
        0.0,
        0.0,
        0.0,
        0.0,
        0.0,
        1.0
      ],
      "name": "e1e6d38410bc441ca203ee97bf5a24ce.fbx"
    },
    {
      "children": [
        3
      ],
      "name": "RootNode"
    },
    {
      "children": [
        4
      ],
      "matrix": [
        2.2763279480396757e-07,
        -5.781631963347488e-16,
        -5.207631111145015,
        0.0,
        -5.20763111114501,
        -2.2763279480396757e-07,
        -2.2763279509304917e-07,
        0.0,
        -2.2763279509304917e-07,
        5.207631111145015,
        -1.0406937534025479e-14,
        0.0,
        0.0,
        0.0,
        0.0,
        1.0
      ],
      "name": "Coffee Mug.001"
    },
    {
      "mesh": 0,
      "name": "Coffee Mug.001_Mug White_0"
    }
  ],
  "samplers": [
    {
      "magFilter": 9729,
      "minFilter": 9987,
      "wrapS": 10497,
      "wrapT": 10497
    }
  ],
  "scene": 0,
  "scenes": [
    {
      "name": "Sketchfab_Scene",
      "nodes": [
        0
      ]
    }
  ],
  "textures": [
    {
      "sampler": 0,
      "source": 0
    },
    {
      "sampler": 0,
      "source": 1
    }
  ]
}
