{
  "accessors": [
    {
      "bufferView": 2,
      "componentType": 5126,
      "count": 1198,
      "max": [
        0.49806255102157593,
        14.612075805664063,
        0.4491655230522156
      ],
      "min": [
        -0.4636743366718292,
        14.453595161437988,
        -1.3690221309661865
      ],
      "type": "VEC3"
    },
    {
      "bufferView": 2,
      "byteOffset": 14376,
      "componentType": 5126,
      "count": 1198,
      "max": [
        0.9999995827674866,
        0.9999791979789734,
        0.9999250769615173
      ],
      "min": [
        -0.9999465942382813,
        -0.9999987483024597,
        -0.9999251365661621
      ],
      "type": "VEC3"
    },
    {
      "bufferView": 1,
      "componentType": 5126,
      "count": 1198,
      "max": [
        0.625,
        0.9254236221313477
      ],
      "min": [
        0.0,
        0.0
      ],
      "type": "VEC2"
    },
    {
      "bufferView": 0,
      "componentType": 5125,
      "count": 6384,
      "type": "SCALAR"
    },
    {
      "bufferView": 2,
      "byteOffset": 28752,
      "componentType": 5126,
      "count": 3596,
      "max": [
        2.0699262619018555,
        14.48772144317627,
        2.069927215576172
      ],
      "min": [
        -2.069927453994751,
        5.068605422973633,
        -2.069927930831909
      ],
      "type": "VEC3"
    },
    {
      "bufferView": 2,
      "byteOffset": 71904,
      "componentType": 5126,
      "count": 3596,
      "max": [
        1.0,
        1.0,
        1.0
      ],
      "min": [
        -1.0,
        -0.9879198670387268,
        -1.0
      ],
      "type": "VEC3"
    },
    {
      "bufferView": 1,
      "byteOffset": 9584,
      "componentType": 5126,
      "count": 3596,
      "max": [
        0.98897385597229,
        0.9375271797180176
      ],
      "min": [
        0.0,
        0.0
      ],
      "type": "VEC2"
    },
    {
      "bufferView": 0,
      "byteOffset": 25536,
      "componentType": 5125,
      "count": 19008,
      "type": "SCALAR"
    },
    {
      "bufferView": 2,
      "byteOffset": 115056,
      "componentType": 5126,
      "count": 5474,
      "max": [
        1.8772374391555786,
        14.650102615356445,
        1.8772374391555786
      ],
      "min": [
        -1.8772374391555786,
        5.068604946136475,
        -1.8772374391555786
      ],
      "type": "VEC3"
    },
    {
      "bufferView": 2,
      "byteOffset": 180744,
      "componentType": 5126,
      "count": 5474,
      "max": [
        1.0,
        1.0,
        1.0
      ],
      "min": [
        -1.0,
        -1.0,
        -1.0
      ],
      "type": "VEC3"
    },
    {
      "bufferView": 1,
      "byteOffset": 38352,
      "componentType": 5126,
      "count": 5474,
      "max": [
        0.0,
        0.0
      ],
      "min": [
        0.0,
        0.0
      ],
      "type": "VEC2"
    },
    {
      "bufferView": 0,
      "byteOffset": 101568,
      "componentType": 5125,
      "count": 31884,
      "type": "SCALAR"
    },
    {
      "bufferView": 2,
      "byteOffset": 246432,
      "componentType": 5126,
      "count": 4,
      "max": [
        -0.2908758223056793,
        14.465846061706543,
        -0.15626606345176697
      ],
      "min": [
        -0.42848488688468933,
        14.465047836303711,
        -0.2367028146982193
      ],
      "type": "VEC3"
    },
    {
      "bufferView": 2,
      "byteOffset": 246480,
      "componentType": 5126,
      "count": 4,
      "max": [
        0.011330670677125454,
        0.999998152256012,
        0.0032066202256828547
      ],
      "min": [
        0.0019334896933287382,
        0.9999344348907471,
        -0.0011467342264950275
      ],
      "type": "VEC3"
    },
    {
      "bufferView": 1,
      "byteOffset": 82144,
      "componentType": 5126,
      "count": 4,
      "max": [
        0.0,
        0.0
      ],
      "min": [
        0.0,
        0.0
      ],
      "type": "VEC2"
    },
    {
      "bufferView": 0,
      "byteOffset": 229104,
      "componentType": 5125,
      "count": 6,
      "type": "SCALAR"
    },
    {
      "bufferView": 2,
      "byteOffset": 246528,
      "componentType": 5126,
      "count": 28,
      "max": [
        0.4770098328590393,
        14.46584701538086,
        0.42488041520118713
      ],
      "min": [
        -0.4527477025985718,
        14.461265563964844,
        -0.17822445929050446
      ],
      "type": "VEC3"
    },
    {
      "bufferView": 2,
      "byteOffset": 246864,
      "componentType": 5126,
      "count": 28,
      "max": [
        0.02107277326285839,
        0.9999999403953552,
        0.05707036331295967
      ],
      "min": [
        -0.02107536420226097,
        0.9983319044113159,
        -0.0014878433430567384
      ],
      "type": "VEC3"
    },
    {
      "bufferView": 1,
      "byteOffset": 82176,
      "componentType": 5126,
      "count": 28,
      "max": [
        0.0,
        0.0
      ],
      "min": [
        0.0,
        0.0
      ],
      "type": "VEC2"
    },
    {
      "bufferView": 0,
      "byteOffset": 229128,
      "componentType": 5125,
      "count": 54,
      "type": "SCALAR"
    },
    {
      "bufferView": 2,
      "byteOffset": 247200,
      "componentType": 5126,
      "count": 8,
      "max": [
        0.38800230622291565,
        14.465493202209473,
        0.38477253913879395
      ],
      "min": [
        0.04568292200565338,
        14.46291446685791,
        -0.27289366722106934
      ],
      "type": "VEC3"
    },
    {
      "bufferView": 2,
      "byteOffset": 247296,
      "componentType": 5126,
      "count": 8,
      "max": [
        0.02107277326285839,
        0.9999999403953552,
        0.03487337753176689
      ],
      "min": [
        -0.005981221329420805,
        0.9991695284843445,
        0.00013552495511248708
      ],
      "type": "VEC3"
    },
    {
      "bufferView": 1,
      "byteOffset": 82400,
      "componentType": 5126,
      "count": 8,
      "max": [
        0.0,
        0.0
      ],
      "min": [
        0.0,
        0.0
      ],
      "type": "VEC2"
    },
    {
      "bufferView": 0,
      "byteOffset": 229344,
      "componentType": 5125,
      "count": 12,
      "type": "SCALAR"
    },
    {
      "bufferView": 2,
      "byteOffset": 247392,
      "componentType": 5126,
      "count": 4,
      "max": [
        0.16321489214897156,
        14.465051651000977,
        0.3688773512840271
      ],
      "min": [
        0.07761337608098984,
        14.46291446685791,
        0.22793838381767273
      ],
      "type": "VEC3"
    },
    {
      "bufferView": 2,
      "byteOffset": 247440,
      "componentType": 5126,
      "count": 4,
      "max": [
        0.005707614589482546,
        0.999998152256012,
        0.047072816640138626
      ],
      "min": [
        -0.00885295681655407,
        0.9988523125648499,
        0.001886894227936864
      ],
      "type": "VEC3"
    },
    {
      "bufferView": 1,
      "byteOffset": 82464,
      "componentType": 5126,
      "count": 4,
      "max": [
        0.0,
        0.0
      ],
      "min": [
        0.0,
        0.0
      ],
      "type": "VEC2"
    },
    {
      "bufferView": 0,
      "byteOffset": 229392,
      "componentType": 5125,
      "count": 6,
      "type": "SCALAR"
    },
    {
      "bufferView": 2,
      "byteOffset": 247488,
      "componentType": 5126,
      "count": 4,
      "max": [
        -0.04568317160010338,
        14.465051651000977,
        0.38477253913879395
      ],
      "min": [
        -0.11681050807237625,
        14.46291446685791,
        0.22793838381767273
      ],
      "type": "VEC3"
    },
    {
      "bufferView": 2,
      "byteOffset": 247536,
      "componentType": 5126,
      "count": 4,
      "max": [
        -0.0004082168743479997,
        0.999998152256012,
        0.03487185388803482
      ],
      "min": [
        -0.02107536420226097,
        0.9991695880889893,
        0.0018759240629151464
      ],
      "type": "VEC3"
    },
    {
      "bufferView": 1,
      "byteOffset": 82496,
      "componentType": 5126,
      "count": 4,
      "max": [
        0.0,
        0.0
      ],
      "min": [
        0.0,
        0.0
      ],
      "type": "VEC2"
    },
    {
      "bufferView": 0,
      "byteOffset": 229416,
      "componentType": 5125,
      "count": 6,
      "type": "SCALAR"
    }
  ],
  "asset": {
    "extras": {
      "author": "King007 (https://sketchfab.com/lg885546)",
      "license": "CC-BY-4.0 (http://creativecommons.org/licenses/by/4.0/)",
      "source": "https://sketchfab.com/3d-models/coca-8037cc5782d045e59a0a7133559d6d21",
      "title": "coca"
    },
    "generator": "Sketchfab-11.49.7",
    "version": "2.0"
  },
  "bufferViews": [
    {
      "buffer": 0,
      "byteLength": 229440,
      "name": "floatBufferViews",
      "target": 34963
    },
    {
      "buffer": 0,
      "byteLength": 82528,
      "byteOffset": 229440,
      "byteStride": 8,
      "name": "floatBufferViews",
      "target": 34962
    },
    {
      "buffer": 0,
      "byteLength": 247584,
      "byteOffset": 311968,
      "byteStride": 12,
      "name": "floatBufferViews",
      "target": 34962
    }
  ],
  "buffers": [
    {
      "byteLength": 559552,
      "uri": "scene.bin"
    }
  ],
  "images": [
    {
      "uri": "textures/phong42_baseColor.jpeg"
    }
  ],
  "materials": [
    {
      "doubleSided": true,
      "name": "phong41",
      "pbrMetallicRoughness": {
        "baseColorFactor": [
          0.961039,
          0.961039,
          0.961039,
          1.0
        ],
        "metallicFactor": 0.0,
        "roughnessFactor": 0.8942628736559436
      }
    },
    {
      "doubleSided": true,
      "name": "phong42",
      "pbrMetallicRoughness": {
        "baseColorTexture": {
          "index": 0
        },
        "metallicFactor": 0.0,
        "roughnessFactor": 0.8794249012188461
      }
    },
    {
      "doubleSided": true,
      "name": "phong43",
      "pbrMetallicRoughness": {
        "baseColorFactor": [
          0.5,
          0.5,
          0.5,
          1.0
        ],
        "roughnessFactor": 0.25
      }
    },
    {
      "doubleSided": true,
      "name": "phong44",
      "pbrMetallicRoughness": {
        "baseColorFactor": [
          0.671,
          0.671,
          0.671,
          1.0
        ],
        "metallicFactor": 0.0,
        "roughnessFactor": 0.8942628736559436
      }
    },
    {
      "doubleSided": true,
      "name": "phong45",
      "pbrMetallicRoughness": {
        "baseColorFactor": [
          0.5,
          0.5,
          0.5,
          1.0
        ],
        "metallicFactor": 0.0,
        "roughnessFactor": 0.8942628736559436
      }
    },
    {
      "doubleSided": true,
      "name": "phong48",
      "pbrMetallicRoughness": {
        "baseColorFactor": [
          0.5,
          0.5,
          0.5,
          1.0
        ],
        "metallicFactor": 0.0,
        "roughnessFactor": 0.8942628736559436
      }
    },
    {
      "doubleSided": true,
      "name": "phong47",
      "pbrMetallicRoughness": {
        "baseColorFactor": [
          0.5,
          0.5,
          0.5,
          1.0
        ],
        "metallicFactor": 0.0,
        "roughnessFactor": 0.8942628736559436
      }
    },
    {
      "doubleSided": true,
      "name": "phong46",
      "pbrMetallicRoughness": {
        "baseColorFactor": [
          0.5,
          0.5,
          0.5,
          1.0
        ],
        "metallicFactor": 0.0,
        "roughnessFactor": 0.8942628736559436
      }
    }
  ],
  "meshes": [
    {
      "name": "polySurface1_phong41_0",
      "primitives": [
        {
          "attributes": {
            "NORMAL": 1,
            "POSITION": 0,
            "TEXCOORD_0": 2
          },
          "indices": 3,
          "material": 0,
          "mode": 4
        }
      ]
    },
    {
      "name": "polySurface2_phong42_0",
      "primitives": [
        {
          "attributes": {
            "NORMAL": 5,
            "POSITION": 4,
            "TEXCOORD_0": 6
          },
          "indices": 7,
          "material": 1,
          "mode": 4
        }
      ]
    },
    {
      "name": "polySurface2_phong43_0",
      "primitives": [
        {
          "attributes": {
            "NORMAL": 9,
            "POSITION": 8,
            "TEXCOORD_0": 10
          },
          "indices": 11,
          "material": 2,
          "mode": 4
        }
      ]
    },
    {
      "name": "polySurface2_phong44_0",
      "primitives": [
        {
          "attributes": {
            "NORMAL": 13,
            "POSITION": 12,
            "TEXCOORD_0": 14
          },
          "indices": 15,
          "material": 3,
          "mode": 4
        }
      ]
    },
    {
      "name": "polySurface2_phong45_0",
      "primitives": [
        {
          "attributes": {
            "NORMAL": 17,
            "POSITION": 16,
            "TEXCOORD_0": 18
          },
          "indices": 19,
          "material": 4,
          "mode": 4
        }
      ]
    },
    {
      "name": "polySurface2_phong48_0",
      "primitives": [
        {
          "attributes": {
            "NORMAL": 21,
            "POSITION": 20,
            "TEXCOORD_0": 22
          },
          "indices": 23,
          "material": 5,
          "mode": 4
        }
      ]
    },
    {
      "name": "polySurface2_phong47_0",
      "primitives": [
        {
          "attributes": {
            "NORMAL": 25,
            "POSITION": 24,
            "TEXCOORD_0": 26
          },
          "indices": 27,
          "material": 6,
          "mode": 4
        }
      ]
    },
    {
      "name": "polySurface2_phong46_0",
      "primitives": [
        {
          "attributes": {
            "NORMAL": 29,
            "POSITION": 28,
            "TEXCOORD_0": 30
          },
          "indices": 31,
          "material": 7,
          "mode": 4
        }
      ]
    }
  ],
  "nodes": [
    {
      "children": [
        1
      ],
      "matrix": [
        1.0,
        0.0,
        0.0,
        0.0,
        0.0,
        2.220446049250313e-16,
        -1.0,
        0.0,
        0.0,
        1.0,
        2.220446049250313e-16,
        0.0,
        0.0,
        0.0,
        0.0,
        1.0
      ],
      "name": "Sketchfab_model"
    },
    {
      "children": [
        2
      ],
      "matrix": [
        0.009999999776482582,
        0.0,
        0.0,
        0.0,
        0.0,
        0.0,
        0.009999999776482582,
        0.0,
        0.0,
        -0.009999999776482582,
        0.0,
        0.0,
        0.0,
        0.0,
        0.0,
        1.0
      ],
      "name": "662cf147bad74d999bbf21fe21b1b9f5.fbx"
    },
    {
      "children": [
        3
      ],
      "name": "RootNode"
    },
    {
      "children": [
        4,
        6
      ],
      "name": "pCube2"
    },
    {
      "children": [
        5
      ],
      "name": "polySurface1"
    },
    {
      "mesh": 0,
      "name": "polySurface1_phong41_0"
    },
    {
      "children": [
        7,
        8,
        9,
        10,
        11,
        12,
        13
      ],
      "name": "polySurface2"
    },
    {
      "mesh": 1,
      "name": "polySurface2_phong42_0"
    },
    {
      "mesh": 2,
      "name": "polySurface2_phong43_0"
    },
    {
      "mesh": 3,
      "name": "polySurface2_phong44_0"
    },
    {
      "mesh": 4,
      "name": "polySurface2_phong45_0"
    },
    {
      "mesh": 5,
      "name": "polySurface2_phong48_0"
    },
    {
      "mesh": 6,
      "name": "polySurface2_phong47_0"
    },
    {
      "mesh": 7,
      "name": "polySurface2_phong46_0"
    }
  ],
  "samplers": [
    {
      "magFilter": 9729,
      "minFilter": 9987,
      "wrapS": 10497,
      "wrapT": 10497
    }
  ],
  "scene": 0,
  "scenes": [
    {
      "name": "Sketchfab_Scene",
      "nodes": [
        0
      ]
    }
  ],
  "textures": [
    {
      "sampler": 0,
      "source": 0
    }
  ]
}
